<svg xmlns="http://www.w3.org/2000/svg" version="1.0" width="512.000000pt" height="512.000000pt" viewBox="0 0 512.000000 512.000000" preserveAspectRatio="xMidYMid meet">

<g transform="translate(0.000000,512.000000) scale(0.100000,-0.100000)" fill="#b70b1a" stroke="none">
<path d="M1190 3841 c-83 -26 -151 -93 -174 -172 -11 -37 -16 -95 -16 -196 l0 -143 -113 0 c-138 0 -202 -17 -259 -68 -23 -20 -52 -59 -64 -87 l-24 -50 0 -565 0 -565 24 -50 c12 -27 41 -67 64 -87 57 -51 121 -68 259 -68 l113 0 0 -143 c0 -170 14 -229 67 -288 70 -77 93 -84 308 -87 182 -3 192 -3 218 18 l27 21 0 1249 0 1249 -26 20 c-25 20 -39 21 -203 20 -97 0 -187 -4 -201 -8z"/>
<path d="M3527 3830 l-27 -21 0 -1249 0 -1249 27 -21 c26 -21 36 -21 218 -18 217 3 241 11 309 90 53 62 66 117 66 285 l0 143 113 0 c74 0 132 5 166 16 61 18 123 69 154 128 22 41 22 44 22 626 0 582 0 585 -22 626 -31 59 -93 110 -154 128 -34 11 -92 16 -166 16 l-113 0 0 143 c0 170 -14 229 -67 288 -70 77 -93 84 -308 87 -182 3 -192 3 -218 -18z"/>
<path d="M220 2841 c-50 -10 -75 -26 -107 -68 l-28 -36 0 -177 0 -177 28 -36 c44 -58 77 -70 205 -75 l112 -5 0 292 0 291 -87 -1 c-49 -1 -104 -4 -123 -8z"/>
<path d="M1730 2560 l0 -290 830 0 830 0 0 290 0 290 -830 0 -830 0 0 -290z"/>
<path d="M4690 2560 l0 -293 113 5 c127 5 160 17 204 75 l28 36 0 177 0 177 -28 36 c-43 57 -76 69 -204 75 l-113 5 0 -293z"/>
</g>
</svg>